<svg id="Layer_1" data-name="Layer 1" xmlns="http://www.w3.org/2000/svg" viewBox="0 0 164.37 184.79"><defs><style>.cls-1{fill:#171a2b;}</style></defs><title>222</title><path class="cls-1" d="M256,513.89c-3.9-2-8.3-.76-12.4-1.86-2.22-.59-3.85-0.81-3.61-3.51,0.27-3,2.46-2.84,4.44-2.55a157.36,157.36,0,0,0,31.28,1.84c10.65-.57,21.21-1.68,31.35-5.76,16.24-6.53,16.59-23.85,6-32.58-4-3.28-7.72-6.81-11.73-10-11.19-9-14.29-21.06-8.28-33.9,2.1-4.48,6.4-7.07,10.45-9.38,10.12-5.75,21.22-8.22,32.79-9.39a127.5,127.5,0,0,1,27.82,0c2.58,0.3,5.58.06,5.54,3.34s-3.11,3-5.4,2.69a110.57,110.57,0,0,0-29.29,0c-11.35,1.33-22.22,4.14-32,10.19-9.54,5.91-10.92,19.37-2.73,27.49,4.93,4.88,10.54,9.06,15.87,13.53,10.66,8.94,13.39,24,5.82,34.08-5.65,7.54-14,10.7-22.86,12.69-5.65,1.28-11.42,2.06-17.14,3.06H256Z" transform="translate(-216.82 -329.1)"/><path class="cls-1" d="M355.8,342.89c-6.22.07-11.87,6-11.8,12.3a11.47,11.47,0,0,0,11.91,11.7A11.71,11.71,0,0,0,368,354.84C367.91,348.63,362,342.82,355.8,342.89Z" transform="translate(-216.82 -329.1)"/><path class="cls-1" d="M376.16,339.92a23.79,23.79,0,0,0-15.16-10c-3.27-.62-7-1.41-10,0-0.29.13-.37,0.66-0.62,0.71-16,3.22-25.26,21.5-15.73,38,6.14,10.66,13.77,20.35,21.23,30.55,7.43-9.95,14.73-19.44,20.87-29.72C382.63,359.64,382.92,349.65,376.16,339.92Zm-2,20.36c-3.64,11-11.89,19.06-18.12,28.91-6.11-8.42-12.38-16-16.83-24.81-6-11.83-.59-24.31,11.91-27.85,6.91-2,13.13-.24,18.22,4.81C374.67,346.63,376.57,353,374.16,360.27Z" transform="translate(-216.82 -329.1)"/><path class="cls-1" d="M241.61,441.89a12.63,12.63,0,0,0-11.61,12c-0.05,7.1,4.95,12.07,12.09,12A11.71,11.71,0,0,0,254,454.15C254.07,447.74,247.92,441.66,241.61,441.89Z" transform="translate(-216.82 -329.1)"/><path class="cls-1" d="M260.73,437.31c-6.61-7.34-15.05-10.14-25-7.51-17,4.51-24.15,22.69-14.76,38.43,6.16,10.33,13.53,19.84,20.89,30,1.92-2.58,3.55-4.63,5-6.78,6.39-9.32,14.11-17.82,18.37-28.47C269,453.58,267.39,444.7,260.73,437.31Zm-0.59,22c-2,6.19-12,21.59-18.46,28.34-5.81-7.95-12.06-15.61-16.51-24.39-6-11.83-.51-24.31,12-27.8,6.91-1.93,13.12-.17,18.2,4.89C260.74,445.71,262.51,452,260.15,459.35Z" transform="translate(-216.82 -329.1)"/></svg>