<?xml version="1.0" encoding="UTF-8"?>
<!DOCTYPE svg PUBLIC "-//W3C//DTD SVG 1.1//EN" "http://www.w3.org/Graphics/SVG/1.1/DTD/svg11.dtd">
<!-- Creator: CorelDRAW X7 -->
<svg xmlns="http://www.w3.org/2000/svg" xml:space="preserve" width="167.162mm" height="107.004mm" version="1.1" style="shape-rendering:geometricPrecision; text-rendering:geometricPrecision; image-rendering:optimizeQuality; fill-rule:evenodd; clip-rule:evenodd"
viewBox="0 0 14869 9518"
 xmlns:xlink="http://www.w3.org/1999/xlink">
 <defs>
  <style type="text/css">
   <![CDATA[
    .fil0 {fill:#2B224C}
   ]]>
  </style>
 </defs>
 <g id="Слой_x0020_1">
  <metadata id="CorelCorpID_0Corel-Layer"/>
  <path class="fil0" d="M5315 816c2325,-885 4722,-1030 6535,-532l-10334 2927c922,-947 2225,-1796 3799,-2395zm5338 1047l294 -67c-33,63 -76,123 -126,178 -51,55 -110,104 -176,147 -66,43 -145,80 -237,110 -88,28 -159,45 -214,49 -54,4 -97,-4 -130,-24 -32,-20 -54,-49 -64,-87 -11,-38 -5,-94 17,-170 23,-79 57,-150 102,-212 33,-45 72,-89 118,-132 46,-43 91,-78 135,-106 69,-44 152,-82 249,-114 136,-44 234,-55 292,-34 58,21 89,71 92,147l-311 135c0,-29 -10,-48 -30,-57 -20,-8 -50,-6 -92,8 -53,17 -101,49 -144,94 -43,46 -75,104 -96,175 -18,63 -16,105 7,128 23,22 59,25 109,8 42,-13 80,-35 115,-64 34,-29 64,-66 90,-112zm-934 642l-334 131 77 -308 -302 119 -78 308 -334 130 205 -814 334 -131 -70 279 303 -119 70 -278 334 -131 -205 814zm-1714 150l-337 98c28,-60 60,-111 93,-151 34,-41 77,-82 130,-123 38,-29 88,-59 148,-90 61,-31 125,-60 193,-85 109,-41 195,-68 257,-82 63,-14 111,-11 145,7 24,13 39,38 44,76 5,38 2,77 -10,117l-108 380c-12,40 -18,71 -19,92 0,21 3,45 12,74l-340 128c-7,-17 -11,-31 -12,-41 -1,-10 0,-26 3,-50 -59,60 -115,107 -167,143 -71,48 -149,88 -234,120 -113,42 -192,51 -237,25 -45,-25 -57,-73 -37,-142 18,-66 55,-127 109,-185 54,-58 141,-119 260,-182 143,-76 236,-127 280,-152 43,-25 89,-54 139,-87 11,-41 10,-66 -3,-75 -14,-9 -44,-5 -91,12 -59,22 -106,48 -141,76 -26,23 -53,55 -77,97zm265 55c-55,35 -111,69 -168,102 -79,45 -131,81 -155,105 -26,26 -42,50 -48,73 -7,26 -3,43 12,52 15,9 42,6 81,-9 40,-15 80,-38 120,-69 40,-31 71,-62 92,-93 22,-31 39,-67 51,-108l15 -53zm-2241 1567c52,-207 104,-414 157,-620 52,-206 105,-412 158,-618 65,-26 131,-52 196,-78 65,-26 130,-52 195,-78 -11,44 -22,88 -34,132 69,-77 128,-134 178,-172 68,-50 139,-90 213,-119 146,-58 247,-57 303,2 56,59 66,155 31,289 -39,147 -112,277 -219,390 -107,112 -227,196 -359,249 -64,26 -121,41 -169,45 -48,3 -88,-4 -121,-23 -18,71 -37,143 -55,214 -18,71 -36,142 -55,213 -70,29 -140,58 -210,87 -70,29 -139,58 -209,87zm618 -957c-18,71 -13,116 14,135 27,20 69,19 124,-4 48,-19 93,-52 135,-98 41,-46 72,-108 92,-186 19,-72 15,-118 -10,-138 -25,-20 -63,-21 -112,-1 -53,21 -102,56 -147,104 -44,49 -76,112 -96,188zm6929 -844l297 -112c-13,56 -38,112 -73,165 -36,53 -82,104 -138,151 -57,47 -130,91 -219,133 -87,41 -159,68 -216,82 -59,14 -109,17 -152,8 -43,-9 -77,-28 -102,-55 -26,-28 -40,-73 -44,-137 -3,-66 8,-128 34,-186 19,-42 46,-85 81,-128 35,-42 71,-79 109,-110 59,-48 137,-94 231,-139 133,-62 235,-91 307,-86 71,5 123,37 155,97l-291 168c-11,-23 -29,-36 -54,-38 -25,-3 -57,5 -98,24 -52,25 -93,59 -123,103 -30,45 -44,97 -41,156 3,53 21,86 54,99 33,13 74,7 123,-16 41,-19 75,-43 102,-73 27,-30 46,-65 58,-106zm-882 607l-288 133 90 -355 -388 493 -289 134 182 -722 287 -133 -90 360 392 -500 286 -132 -182 722zm-1148 146c71,-27 123,-34 158,-20 35,15 46,50 33,106 -18,76 -61,145 -129,210 -69,65 -180,133 -335,203l-543 249 184 -788 587 -269c106,-48 183,-69 232,-61 47,9 64,43 50,103 -10,43 -37,88 -80,136 -44,48 -96,91 -157,128l0 3zm-337 93l92 -42c61,-28 97,-65 108,-111 8,-37 -20,-41 -84,-12l-87 40 -29 125zm-71 302l120 -54c30,-14 56,-31 77,-51 21,-20 34,-41 39,-62 11,-48 -17,-56 -84,-26l-119 55 -33 138zm-1749 1200c45,-194 91,-387 136,-580 46,-193 92,-387 137,-580 61,-25 121,-50 181,-76 61,-25 121,-50 182,-76 -10,41 -20,83 -30,124 63,-73 117,-128 163,-164 63,-48 128,-86 196,-115 136,-56 230,-57 283,-3 53,54 65,144 34,269 -34,138 -99,261 -197,368 -98,107 -209,186 -331,239 -60,25 -112,40 -157,44 -45,4 -83,-2 -113,-19 -16,67 -32,134 -48,200 -16,67 -32,134 -47,200 -65,28 -130,57 -195,85 -65,28 -129,56 -194,84zm561 -903c-16,67 -11,109 15,126 26,18 64,16 115,-6 45,-19 87,-50 124,-94 38,-43 66,-102 84,-175 16,-67 12,-110 -12,-128 -24,-19 -59,-19 -105,1 -49,20 -94,54 -135,100 -40,46 -69,105 -86,176zm-590 333l-833 355c6,50 24,81 52,94 39,20 92,16 156,-11 41,-18 80,-42 117,-74 23,-20 47,-48 73,-85l409 -144c-64,112 -140,205 -229,280 -89,75 -216,147 -382,218 -143,61 -256,93 -338,97 -82,3 -149,-18 -202,-65 -53,-46 -79,-116 -78,-209 2,-133 58,-264 168,-393 110,-128 261,-233 452,-315 155,-66 277,-100 366,-101 90,-1 157,23 203,73 46,50 68,131 66,243l0 37zm-420 24c-8,-60 -29,-96 -63,-108 -35,-12 -81,-6 -138,18 -66,28 -119,71 -159,129 -26,37 -42,82 -50,135l410 -174zm3349 -3858c618,218 1153,518 1574,897 -3240,1383 -8039,2470 -7955,4148 -20,1193 2734,215 2653,1216 -184,1249 -3333,2071 -5660,2837 -1198,-352 -2127,-991 -2591,-1888 -425,-823 -399,-1751 -6,-2670l3446 -1305 -1587 4597 2710 -995 991 -4403 6425 -2434zm1776 1094c198,210 364,440 494,691 1138,2203 -950,5148 -4683,6686 1360,-1086 1924,-2302 1555,-3003 -490,-1090 -3916,-86 -3830,-1130 -20,-987 3456,-1915 6464,-3244z"/>
 </g>
</svg>
