<svg id="Layer_1" data-name="Layer 1" xmlns="http://www.w3.org/2000/svg" viewBox="0 0 218.88 199.59"><title>logo</title><path d="M372.5,519.95a30,30,0,0,1-15,0c-7.94-2.08-14.32-8-21.47-12.09-4.92-2.78-9.68-5.88-14.74-8.37-15.52-7.64-31.82-10.12-48.3-4.2-8.82,3.17-16.94,8.33-25.32,12.72-7.44,3.89-14,9.89-22.17,11.94a30.55,30.55,0,0,1-13,0,26.92,26.92,0,0,1-3.16-1.23c-10.49-3.4-18.26-9.91-22.79-20-1.13-2.52-2.54-5-3.05-7.73a32.52,32.52,0,0,1,0-13c1.29-5.77,4.49-11,7.67-16,4.81-7.45,13-10.43,20.72-14,38.9-18.28,48.4-45.47,44-84.1-1.5-13.24,1.87-25,12.59-33.36a45,45,0,0,1,17-8.52,28.45,28.45,0,0,1,12,0,42.15,42.15,0,0,1,14.35,6.33c13.72,9,16.78,22.59,15.15,38-1.67,15.88-1.12,31.61,5.93,46.38,9,18.88,25,29.7,43.72,37.22,8.66,3.48,15.9,8.53,19.91,17.06a56.13,56.13,0,0,1,4.94,15,19.89,19.89,0,0,1,0,6c-1.25,8.35-4.39,16.67-11.6,22C384.54,513.86,379,518.24,372.5,519.95Zm-82.44-43.86c13.73-.11,25.36-4.1,36.53-10,3.23-1.72,4.26-3.82,3.59-7.18a29.8,29.8,0,0,1-.36-4c-1.51-25.33-14.46-43.29-36-55.61a5.48,5.48,0,0,0-4.44-.16c-22.59,11.16-37.7,37.31-35.93,62.16a5.62,5.62,0,0,0,2.22,3.89C266.53,471.72,278.2,475.8,290.06,476.08Z" transform="translate(-182.84 -321.3)"/></svg>