<?xml version="1.0" encoding="iso-8859-1"?>
<!-- Generator: Adobe Illustrator 19.0.0, SVG Export Plug-In . SVG Version: 6.00 Build 0)  -->
<svg version="1.1" id="Layer_1" xmlns="http://www.w3.org/2000/svg" xmlns:xlink="http://www.w3.org/1999/xlink" x="0px" y="0px"
	 viewBox="0 0 512 512" style="enable-background:new 0 0 512 512;" xml:space="preserve">
<g>
	<g>
		<g>
			<path d="M374.568,334.147c-16.344,0-29.642,13.297-29.642,29.642c0,16.345,13.298,29.642,29.642,29.642
				s29.642-13.297,29.642-29.642C404.211,347.444,390.913,334.147,374.568,334.147z M374.568,377.263
				c-7.43,0-13.474-6.044-13.474-13.474s6.044-13.474,13.474-13.474s13.474,6.044,13.474,13.474
				C388.042,371.218,381.998,377.263,374.568,377.263z"/>
			<path d="M511.146,306.279l-32.337-64.674c-1.37-2.739-4.168-4.469-7.231-4.469h-35.032v-13.474c0-4.465-3.618-8.084-8.084-8.084
				h-13.474v-35.032c0-3.479-2.226-6.569-5.527-7.669l-32.337-10.779c-2.469-0.822-5.176-0.409-7.284,1.111
				c-2.107,1.52-3.357,3.96-3.357,6.559v45.809H353.01c-4.466,0-8.084,3.62-8.084,8.084v13.474h-26.947V148.21
				c0-40.119-32.639-72.758-72.758-72.758H148.21c-4.466,0-8.084,3.62-8.084,8.084v161.684c0,0.024,0.01,0.043,0.01,0.067
				c0.016,1.833,0.645,3.645,1.864,5.108l52.021,62.425v26.716h-16.168v-18.863c0-4.16-3.142-7.582-7.182-8.031
				c-13.904-32.489-46.053-53.948-81.744-53.948s-67.841,21.46-81.748,53.949C3.141,313.093,0,316.515,0,320.674v53.895
				c0,4.159,3.141,7.581,7.179,8.03c6.62,15.469,17.37,28.439,30.68,37.78H8.084c-4.466,0-8.084,3.62-8.084,8.084
				c0,4.465,3.619,8.084,8.084,8.084h431.158c4.466,0,8.084-3.62,8.084-8.084c0-4.465-3.618-8.084-8.084-8.084h-19.013
				c11.794-9.536,20.557-22.671,24.602-37.726h26.748c3.062,0,5.862-1.73,7.231-4.469l32.337-64.674
				C512.285,311.235,512.285,308.555,511.146,306.279z M382.653,180.985l16.168,5.389v29.205h-16.168V180.985z M361.095,231.747
				h59.284v26.947h-59.284V231.747z M156.295,91.621h88.926c31.203,0,56.589,25.385,56.589,56.589v88.926h-26.947V148.21
				c0-16.345-13.298-29.642-29.642-29.642h-88.926V91.621z M156.295,134.737h88.926c7.43,0,13.474,6.044,13.474,13.474v88.926
				h-102.4V134.737z M88.926,274.863c26.789,0,51.145,14.766,63.771,37.726H25.154C37.781,289.629,62.138,274.863,88.926,274.863z
				 M16.168,328.758h145.516v37.726H16.168V328.758z M25.154,382.653h127.544c-12.626,22.96-36.984,37.726-63.771,37.726
				S37.781,405.613,25.154,382.653z M139.994,420.379c13.31-9.34,24.058-22.311,30.678-37.78c4.04-0.449,7.181-3.872,7.181-8.03
				v-18.863h16.168v40.421c0,4.465,3.618,8.084,8.084,8.084h107.789c1.314,0,2.551-0.32,3.649-0.876
				c4.201,6.46,9.391,12.215,15.364,17.045H139.994z M374.568,420.379c-31.203,0-56.589-25.385-56.589-56.589
				s25.387-56.589,56.589-56.589s56.589,25.385,56.589,56.589S405.771,420.379,374.568,420.379z M317.979,318.129V307.2h10.929
				C324.89,310.448,321.227,314.111,317.979,318.129z M466.583,366.484h-19.326c0.032-0.896,0.069-1.791,0.069-2.695
				c0-40.119-32.639-72.758-72.758-72.758h-64.674c-4.466,0-8.084,3.62-8.084,8.084v88.926h-91.621v-78.147
				c0-1.891-0.663-3.723-1.873-5.175l-42.845-51.415h144.424h35.032v13.474c0,4.465,3.618,8.084,8.084,8.084h75.453
				c4.466,0,8.084-3.62,8.084-8.084v-13.474h30.036l28.295,56.589L466.583,366.484z"/>
		</g>
	</g>
</g>
<g>
</g>
<g>
</g>
<g>
</g>
<g>
</g>
<g>
</g>
<g>
</g>
<g>
</g>
<g>
</g>
<g>
</g>
<g>
</g>
<g>
</g>
<g>
</g>
<g>
</g>
<g>
</g>
<g>
</g>
</svg>
