<?xml version="1.0" encoding="iso-8859-1"?>
<!-- Generator: Adobe Illustrator 19.0.0, SVG Export Plug-In . SVG Version: 6.00 Build 0)  -->
<svg version="1.1" id="Layer_1" xmlns="http://www.w3.org/2000/svg" xmlns:xlink="http://www.w3.org/1999/xlink" x="0px" y="0px"
	 viewBox="0 0 512 512" style="enable-background:new 0 0 512 512;" xml:space="preserve">
<g>
	<g>
		<path d="M460.8,25.6H179.2c0-14.14-11.46-25.6-25.6-25.6h-51.2C91.921,0,0,7.185,0,256s91.921,256,102.4,256h51.2
			c14.14,0,25.6-11.46,25.6-25.6h281.6c28.279,0,51.2-22.921,51.2-51.2V76.8C512,48.521,489.079,25.6,460.8,25.6z M153.6,486.4
			c0,0-25.6,0-51.2,0c-25.6,0-76.8-51.2-76.8-230.4S76.8,25.6,102.4,25.6c25.6,0,51.2,0,51.2,0V128c0,0-20.207,0-42.667,0
			c-6.793,0-13.303,2.697-18.099,7.501c-5.53,5.521-33.101,37.308-33.101,120.499s27.571,114.978,33.101,120.499
			c4.796,4.804,11.307,7.501,18.099,7.501c22.46,0,42.667,0,42.667,0V486.4z M128,153.6v204.8h-17.067c0,0-25.6-25.6-25.6-102.4
			s25.6-102.4,25.6-102.4H128z M486.4,435.2c0,14.114-11.486,25.6-25.6,25.6H179.2V384c0-14.14-11.46-25.6-25.6-25.6V153.6
			c14.14,0,25.6-11.46,25.6-25.6V51.2h281.6c14.114,0,25.6,11.486,25.6,25.6V435.2z"/>
	</g>
</g>
<g>
	<g>
		<rect x="230.4" y="128" width="51.2" height="25.6"/>
	</g>
</g>
<g>
	<g>
		<rect x="307.2" y="128" width="51.2" height="25.6"/>
	</g>
</g>
<g>
	<g>
		<rect x="384" y="128" width="51.2" height="25.6"/>
	</g>
</g>
<g>
	<g>
		<rect x="230.4" y="204.8" width="51.2" height="25.6"/>
	</g>
</g>
<g>
	<g>
		<rect x="307.2" y="204.8" width="51.2" height="25.6"/>
	</g>
</g>
<g>
	<g>
		<rect x="384" y="204.8" width="51.2" height="25.6"/>
	</g>
</g>
<g>
	<g>
		<rect x="230.4" y="281.6" width="51.2" height="25.6"/>
	</g>
</g>
<g>
	<g>
		<rect x="307.2" y="281.6" width="51.2" height="25.6"/>
	</g>
</g>
<g>
	<g>
		<rect x="384" y="281.6" width="51.2" height="25.6"/>
	</g>
</g>
<g>
	<g>
		<rect x="230.4" y="358.4" width="51.2" height="25.6"/>
	</g>
</g>
<g>
	<g>
		<rect x="307.2" y="358.4" width="51.2" height="25.6"/>
	</g>
</g>
<g>
	<g>
		<rect x="384" y="358.4" width="51.2" height="25.6"/>
	</g>
</g>
<g>
</g>
<g>
</g>
<g>
</g>
<g>
</g>
<g>
</g>
<g>
</g>
<g>
</g>
<g>
</g>
<g>
</g>
<g>
</g>
<g>
</g>
<g>
</g>
<g>
</g>
<g>
</g>
<g>
</g>
</svg>
