<?xml version="1.0" encoding="iso-8859-1"?>
<!-- Generator: Adobe Illustrator 19.0.0, SVG Export Plug-In . SVG Version: 6.00 Build 0)  -->
<svg version="1.1" id="Layer_1" xmlns="http://www.w3.org/2000/svg" xmlns:xlink="http://www.w3.org/1999/xlink" x="0px" y="0px"
	 viewBox="0 0 511.995 511.995" style="enable-background:new 0 0 511.995 511.995;" xml:space="preserve">
<g>
	<g>
		<g>
			<path d="M490.651,223.665l-42.671-85.108l-106.654,0.094v-10.765c0-3.609-1.828-6.977-4.859-8.938
				c-3.031-1.969-6.844-2.273-10.141-0.805l-93.935,41.742H10.669c-3.367,0-6.547,1.594-8.555,4.304
				c-2.016,2.703-2.633,6.195-1.664,9.43l31.289,104.295L21.48,339.693c-0.516,3.094,0.359,6.25,2.383,8.641
				c2.031,2.391,5,3.766,8.141,3.766h11.733c4.938,24.344,26.46,42.671,52.257,42.671c17.453,0,32.937-8.39,42.671-21.327
				c9.727,12.938,25.21,21.327,42.664,21.327c25.796,0,47.319-18.327,52.257-42.671h86.396h22.406
				c4.953,24.344,26.469,42.671,52.265,42.671c25.796,0,47.327-18.327,52.265-42.671h64.858l0.218-85.772L490.651,223.665z
				 M95.995,373.428c-17.64,0-31.992-14.344-31.992-31.984c0-17.656,14.352-31.999,31.992-31.999c17.648,0,32,14.343,32,31.999
				C127.995,359.084,113.643,373.428,95.995,373.428z M181.33,373.428c-17.648,0-32-14.344-32-31.984
				c0-17.656,14.351-31.999,32-31.999c17.64,0,31.999,14.343,31.999,31.999C213.328,359.084,198.969,373.428,181.33,373.428z
				 M319.98,330.771h-86.395c-4.938-24.343-26.46-42.671-52.257-42.671c-17.453,0-32.937,8.391-42.664,21.344
				c-9.734-12.953-25.218-21.344-42.671-21.344c-23.101,0-42.772,14.703-50.179,35.249l5.891-35.468H319.98V330.771z
				 M319.981,266.547H50.604l-25.601-85.326h209.652c1.492,0,2.968-0.312,4.335-0.922l80.99-36V266.547z M383.842,159.94
				l50.967-0.039l31.984,63.764h-82.951V159.94z M341.435,159.979l21.078-0.016v63.702h-21.109L341.435,159.979z M394.653,373.428
				c-17.64,0-31.999-14.344-31.999-31.984c0-17.656,14.359-31.999,31.999-31.999c17.64,0,31.999,14.343,31.999,31.999
				C426.651,359.084,412.293,373.428,394.653,373.428z M490.495,330.771h-43.577c-4.938-24.343-26.469-42.671-52.265-42.671
				c-25.796,0-47.327,18.328-52.265,42.671h-1.047l0.047-85.779h136.092l13.171,26.343L490.495,330.771z"/>
			<path d="M394.653,330.771c-5.891,0-10.671,4.766-10.671,10.672c0,5.875,4.78,10.656,10.671,10.656s10.672-4.781,10.672-10.656
				C405.325,335.537,400.544,330.771,394.653,330.771z"/>
			<path d="M95.995,330.771c-5.891,0-10.664,4.766-10.664,10.672c0,5.875,4.773,10.656,10.664,10.656s10.672-4.781,10.672-10.656
				C106.667,335.537,101.886,330.771,95.995,330.771z"/>
			<path d="M181.33,330.771c-5.891,0-10.672,4.766-10.672,10.672c0,5.875,4.781,10.656,10.672,10.656s10.664-4.781,10.664-10.656
				C191.992,335.537,187.219,330.771,181.33,330.771z"/>
			<path d="M74.667,223.884c0,5.891,4.774,10.664,10.664,10.664h191.997c5.891,0,10.671-4.773,10.671-10.664
				c0-5.891-4.78-10.664-10.671-10.664H85.331C79.44,213.22,74.667,217.993,74.667,223.884z"/>
		</g>
	</g>
</g>
<g>
</g>
<g>
</g>
<g>
</g>
<g>
</g>
<g>
</g>
<g>
</g>
<g>
</g>
<g>
</g>
<g>
</g>
<g>
</g>
<g>
</g>
<g>
</g>
<g>
</g>
<g>
</g>
<g>
</g>
</svg>
